<svg width="7583" height="2712" viewBox="0 0 7583 2712" fill="none" xmlns="http://www.w3.org/2000/svg">
<path d="M197.029 252.298C463.154 385.746 698.934 572.586 889.667 801.169C1170.77 1142.25 1155.48 1351.22 1425.48 1546.06C1687.9 1735.29 2048.07 1787.44 2340.28 1715.95C2739.01 1618.33 2757.04 1352.65 3268.16 931.852C3568.74 684.599 4132.39 220.412 4797.19 265.367C5133.05 288.106 5466.95 438.914 5777.33 579.007C6157.76 750.725 6212.39 838.936 6417.7 879.579C6661.56 927.932 7038.59 893.562 7580.81 461.392" stroke="#4A3AFF" stroke-width="7" stroke-miterlimit="10"/>
<path d="M189.58 301.174C429.384 418.409 645.567 578.77 827.329 774.248C844.711 793.197 862.092 812.669 879.604 832.663C1163.59 1163.03 1152.35 1362.58 1418.95 1552.6C1535.16 1635.75 1666.74 1694.96 1806.04 1726.8C1905.82 1749.51 2008.15 1759 2110.41 1755.03C2186.87 1752.01 2262.76 1740.39 2336.63 1720.4C2418.94 1699.24 2497.18 1664.62 2568.2 1617.94C2698.89 1531.69 2790.37 1415.25 2931.12 1269.15C3037.14 1159.19 3152.49 1058.62 3275.87 968.574C3341.21 920.221 3417.53 861.937 3505.75 802.214C3741.76 641.996 4043.78 467.926 4406.17 407.812C4529.14 386.83 4654.09 379.815 4778.63 386.902C4797.71 387.948 4816.66 389.516 4835.35 391.345C5020.4 409.249 5196.7 456.687 5376.78 519.677C5511.52 566.2 5638.94 624.223 5765.31 678.718C5818.24 701.98 5865.55 723.151 5908.28 743.015C6166.39 863.374 6233.43 927.932 6409.73 956.159C6543.68 977.591 6716.97 973.802 6936.91 897.482C7117.26 835.016 7330.8 722.497 7580.81 536.404" stroke="#4A3AFF" stroke-width="7" stroke-miterlimit="10"/>
<path d="M182.654 350.311C419.975 463.116 634.827 618.096 816.744 807.703C834.169 825.999 851.594 844.73 869.019 863.897C1156.53 1183.68 1149.6 1373.56 1412.54 1559.13C1529.03 1643.37 1661.03 1703.72 1800.94 1736.73C1901.31 1759.59 2004.32 1768.74 2107.14 1763.91C2183.72 1760.01 2259.55 1746.85 2332.97 1724.71C2414.87 1701.04 2492.69 1665.03 2563.76 1617.94C2699.67 1529.08 2796.12 1416.43 2935.3 1279.99C3041.82 1176.44 3158.5 1083.88 3283.58 1003.73C3348.92 960.864 3423.54 908.329 3510.84 856.317C3743.46 717.662 4027.05 572.212 4385.79 524.773C4509.73 507.698 4634.98 502.098 4759.94 508.046C4779.28 509.091 4798.36 510.398 4817.18 512.097C5005.37 528.563 5177.22 569.206 5360.97 625.269C5499.37 667.61 5625.61 724.588 5753.03 778.299C5805.96 800.516 5853.79 820.771 5897.57 839.721C6156.46 952.239 6225.85 1011.57 6401.49 1032.48C6535.32 1048.42 6707.3 1039.67 6928.42 962.432C7109.03 899.181 7325.31 788.754 7580.81 611.678" stroke="#4A3AFF" stroke-width="7" stroke-miterlimit="10"/>
<path d="M174.42 398.664C409.8 507.197 623.775 657.118 806.158 841.289C823.539 859.062 841.051 877.096 858.432 895.523C1149.73 1204.59 1146.46 1385.06 1405.88 1565.67C1528.72 1651.13 1649.74 1712.69 1795.45 1746.79C1896.49 1769.85 2000.26 1778.64 2103.74 1772.93C2180.47 1768.11 2256.25 1753.35 2329.18 1729.02C2410.71 1702.85 2488.21 1665.47 2559.45 1617.94C2700.32 1526.46 2801.61 1417.86 2939.35 1291.23C3046.46 1194.03 3164.58 1109.69 3291.29 1039.93C3357.29 1002.55 3429.69 955.768 3515.94 911.466C3746.34 793.067 4010.32 677.151 4365.4 642.127C4490.31 629.009 4616.01 624.86 4741.51 629.712C4760.99 630.627 4780.72 631.803 4799.02 633.372C4983.66 648.494 5166.42 681.36 5344.76 731.515C5486.82 769.544 5612.02 825.999 5741 878.272C5793.93 899.704 5842.15 918.915 5887.11 936.949C6146.65 1041.5 6218.53 1095.34 6393.39 1109.32C6527.21 1120.04 6698.28 1105.92 6920.19 1027.77C7101.19 964.523 7319.82 854.88 7580.81 686.168" stroke="#4A3AFF" stroke-width="7" stroke-miterlimit="10"/>
<path d="M166.842 447.409C399.947 551.723 612.794 696.39 795.574 874.744C812.955 891.994 830.598 909.244 847.848 927.017C1142.28 1225.89 1143.59 1395.78 1399.34 1572.33C1524.93 1658.71 1641.9 1721.96 1790.23 1756.86C1891.85 1780.13 1996.31 1788.54 2100.35 1781.82C2177.42 1776.23 2253.34 1759.91 2325.91 1733.33C2406.9 1704.88 2484 1666.38 2555.4 1618.72C2701.24 1524.5 2808.01 1420.35 2943.8 1302.34C3039.59 1219.23 3152.89 1146.57 3299.39 1076C3365.91 1043.85 3436.74 1002.68 3521.56 966.222C3751.04 867.556 3994.12 781.958 4344.88 759.35C4470.59 750.078 4596.7 747.33 4722.7 751.117C4742.43 751.901 4761.9 752.947 4780.59 754.253C4965.57 766.382 5149.19 794.186 5329.47 837.368C5475.45 871.084 5598.82 927.148 5729.11 977.591C5781.39 998.239 5830.92 1016.8 5876.92 1033.65C6136.98 1130.88 6211.34 1178.58 6385.68 1185.51C6519.5 1190.87 6689.4 1171.66 6912.22 1092.72C7093.22 1028.56 7314.47 920.875 7580.81 760.788" stroke="#4A3AFF" stroke-width="7" stroke-miterlimit="10"/>
<path d="M159.393 496.154C390.169 596.319 601.835 735.731 784.988 908.199C802.369 924.796 820.012 941.262 837.262 958.25C1135.23 1245.75 1140.59 1407.15 1392.55 1578.74C1520.88 1666.16 1633.8 1731.11 1784.61 1766.79C1886.91 1790.27 1992.14 1798.28 2096.82 1790.57C2173.91 1784.18 2249.62 1766.34 2321.47 1737.65C2401.97 1706.79 2478.74 1666.94 2550.3 1618.86C2701.24 1522.15 2813.63 1422.83 2947.19 1313.45C3045.86 1232.95 3161.65 1169.7 3306.45 1111.93C3373.75 1085.01 3443.02 1049.73 3526 1020.46C3756.4 940.739 3977.13 886.244 4324.23 875.789C4444.86 872.13 4578.29 867.556 4703.88 871.869C4723.87 872.522 4743.08 873.437 4762.16 874.482C4947.2 883.607 5131.31 906.32 5313.01 942.438C5462.64 971.842 5585.1 1027.51 5716.83 1076.91C5769.76 1096.77 5819.02 1113.89 5866.2 1130.1C6126.79 1220.66 6204.03 1265.1 6377.19 1262.35C6511.01 1260.26 6679.86 1237.91 6903.46 1157.8C7084.59 1092.46 7308.59 987.001 7580.28 835.669" stroke="#4A3AFF" stroke-width="7" stroke-miterlimit="10"/>
<path d="M151.812 544.768C380.304 640.885 590.823 775.086 774.402 941.654C791.783 957.597 809.557 973.41 826.677 989.614C1128.3 1266.66 1137.71 1418.13 1385.88 1585.27C1516.57 1673.48 1625.69 1740.26 1779.25 1776.85C1882.03 1800.38 1987.81 1808.01 2092.9 1799.46C2170.24 1792.17 2245.96 1772.77 2317.28 1741.96C2397.13 1708.57 2473.52 1667.42 2545.33 1619.12C2701.24 1519.67 2819.77 1424.66 2950.46 1324.43C3052.13 1246.02 3170.54 1192.96 3313.38 1147.87C3381.72 1126.18 3456.09 1113.63 3530.32 1075.87C3771.17 1065.8 3960.67 971.319 4302.93 993.535C4423.82 1001.51 4559.34 990.399 4684.41 993.535C4704.66 994.188 4724.27 994.842 4743.08 995.757C4944.6 1005.3 5098.81 1016.4 5296.41 1048.03C5449.7 1072.99 5570.85 1128.4 5704.02 1176.23C5756.3 1195.31 5806.61 1211.52 5854.96 1226.8C6115.68 1309.4 6195.66 1344.42 6368.56 1337.89C6502.51 1332.53 6670.32 1302.99 6894.7 1222.23C7076.1 1156.89 7302.45 1052.34 7579.76 909.767" stroke="#4A3AFF" stroke-width="7" stroke-miterlimit="10"/>
<path d="M144.23 593.513C370.41 685.575 579.773 814.476 763.814 974.978C781.326 990.398 799.1 1005.43 816.089 1020.85C1122.03 1287.18 1135.36 1428.97 1379.74 1591.8C1513.69 1680.93 1618.24 1749.41 1774.28 1786.91C1877.95 1810.74 1984.75 1817.93 2090.67 1808.22C2176.79 1801.03 2247.5 1775.15 2314.67 1746.14C2393.92 1710.28 2470.03 1667.83 2542.19 1619.25C2703.07 1517.18 2828.27 1427.14 2955.95 1335.4C3060.5 1260 3182.03 1216.48 3321.87 1183.68C3391.65 1167.34 3464.32 1163.55 3536.32 1130.62C3777.18 1149.18 3944.46 1097.3 4283.33 1110.5C4404.87 1115.33 4541.96 1112.46 4666.63 1115.2C4687.02 1115.2 4706.88 1116.12 4725.57 1116.77C4930.49 1124.48 5080.25 1128.4 5281.38 1154.67C5438.2 1175.32 5558.17 1230.33 5692.78 1276.73C5745.05 1295.02 5795.76 1310.18 5845.29 1324.56C6106.66 1400.09 6189.13 1429.1 6361.37 1415.12C6495.32 1404.53 6661.95 1369.9 6887.25 1288.23C7068.78 1222.88 7297.74 1119.38 7580.54 985.563" stroke="#4A3AFF" stroke-width="7" stroke-miterlimit="10"/>
<path d="M136.783 642.127C360.547 730.277 568.684 853.824 753.231 1008.04C770.743 1022.94 788.647 1037.31 806.289 1051.82C1115.36 1307.44 1133.01 1439.43 1373.21 1597.82C1509.9 1687.86 1610.4 1758.16 1769.06 1796.32C1873.22 1820.41 1980.63 1827.3 2087.02 1816.71C2174.31 1808.74 2243.84 1780.77 2310.62 1750.06C2393.08 1712.16 2460.91 1667.73 2537.36 1619.38C2703.33 1514.83 2853.49 1451.97 2959.74 1346.38C3080.1 1295.02 3192.62 1197.01 3329.71 1219.62C3401.07 1231.38 3472.16 1213.34 3541.68 1185.38C3782.67 1232.42 3928.65 1202.76 4263.2 1227.59C4385.26 1236.61 4524.58 1234.52 4648.21 1236.48C4668.99 1236.48 4688.85 1236.48 4707.67 1237.65C4915.72 1243.53 5061.17 1239.87 5265.7 1260.52C5426.57 1276.6 5544.98 1331.35 5680.89 1376.31C5733.16 1393.82 5784.39 1408.06 5834.97 1421.39C6096.34 1490 6182.07 1512.09 6353.66 1491.57C6487.75 1475.5 6653.33 1435.77 6879.28 1353.18C7061.07 1287.05 7291.99 1185.38 7580.81 1060.31" stroke="#4A3AFF" stroke-width="7" stroke-miterlimit="10"/>
<path d="M129.205 690.741C350.682 775.163 557.647 893.59 742.647 1041.76C760.159 1056 778.063 1069.07 795.836 1083.31C1109.48 1328.22 1130 1450.4 1366.67 1604.48C1506.25 1695.3 1602.56 1767.44 1763.7 1806.52C1868.52 1830.72 1976.65 1837.21 2083.62 1825.73C2172.09 1816.97 2240.44 1786.52 2306.96 1754.5C2387.86 1715.3 2454.9 1668.78 2532.92 1619.51C2703.86 1512.09 2861.86 1456.68 2964.18 1357.23C3088.73 1311.49 3208.31 1219.75 3337.82 1255.42C3408.65 1274.9 3480.13 1263.27 3546.91 1240.13C3788.03 1315.67 3912.84 1308.48 4242.95 1344.68C4365.53 1357.75 4505.89 1356.7 4629.78 1357.75H4689.5C4900.95 1361.67 5042.36 1350.82 5250.02 1365.59C5414.68 1377.22 5531.65 1431.85 5669 1475.23C5721.27 1491.96 5772.89 1505.16 5824.65 1517.44C6086.02 1579.39 6174.88 1594.68 6345.82 1567.37C6479.91 1545.8 6644.44 1500.98 6871.18 1417.6C7053.1 1350.82 7287.16 1250.85 7580.94 1134.41" stroke="#4A3AFF" stroke-width="7" stroke-miterlimit="10"/>
<path d="M121.623 739.225C340.548 820.058 546.133 933.222 731.536 1074.95C749.179 1088.02 767.083 1101.09 784.856 1114.16C1101.9 1348.21 1126.86 1460.6 1359.88 1610.75C1502.32 1702.23 1595.11 1776.33 1758.21 1816.19C1863.61 1840.7 1972.46 1846.84 2079.96 1834.35C2169.74 1824.81 2236.78 1792.66 2302.91 1758.56C2382.23 1717.26 2448.62 1669.56 2528.21 1619.51C2704.25 1509.47 2869.96 1461.25 2967.58 1368.07C3096.44 1327.82 3215.88 1313.45 3344.87 1291.1C3418.84 1305.22 3487.06 1312.93 3551.62 1294.76C3792.73 1399.31 3896.11 1414.21 4222.04 1461.38C4345.14 1479.29 4487.33 1480.2 4610.7 1478.76C4631.87 1478.76 4652.13 1478.76 4670.81 1478.76C4885.66 1476.02 5022.36 1462.43 5233.68 1471.58C5402.27 1478.76 5517.66 1533.13 5656.58 1575.08C5708.85 1590.89 5761.13 1603.3 5813.4 1614.28C6074.78 1669.56 6166.26 1677.79 6336.93 1643.69C6471.15 1616.76 6634.51 1566.84 6862.29 1482.55C7044.34 1415.25 7280.49 1316.85 7580.15 1209.03" stroke="#4A3AFF" stroke-width="7" stroke-miterlimit="10"/>
<path d="M114.176 787.839C330.941 865.038 535.504 972.951 721.606 1108.27C739.118 1121.34 757.152 1133.5 774.926 1145.78C1096.15 1368.86 1124.77 1471.57 1353.6 1617.16C1498.93 1709.68 1586.88 1785.48 1753.11 1826.25C1859.42 1851.05 1969.3 1856.76 2077.61 1843.11C2169.09 1832.78 2235.08 1798.68 2299.77 1762.87C2378.19 1719.87 2443.53 1670.61 2524.42 1619.12C2705.29 1506.47 2878.98 1465.43 2972.15 1378.53C3105.19 1343.9 3226.47 1339.32 3353.11 1326.25C3427.99 1347.16 3495.16 1362.06 3557.37 1348.73C3798.48 1481.38 3880.56 1519.54 4202.17 1577.69C4325.8 1600.04 4469.69 1601.6 4592.67 1599.38C4614.1 1599.38 4634.35 1599.38 4653.17 1599.38C4871.16 1594.55 5003.67 1573.25 5218.39 1577.04C5390.64 1579.78 5504.72 1634.01 5645.08 1674.4C5697.36 1689.55 5749.63 1700.53 5803.87 1711.12C6065.24 1759.99 6160.38 1761.04 6329.88 1720.13C6464.09 1687.73 6626.41 1632.84 6854.98 1547.63C7037.15 1479.81 7276.44 1382.97 7581.07 1283.91" stroke="#4A3AFF" stroke-width="7" stroke-miterlimit="10"/>
<path d="M106.594 836.323C321.031 910.081 524.386 1012.79 711.018 1141.6C728.661 1154.67 746.695 1165.38 764.469 1177.01C1090.01 1388.98 1122.29 1482.03 1347.07 1623.56C1495.27 1716.74 1579.04 1794.36 1747.88 1836.05C1854.59 1861.01 1964.94 1866.37 2073.55 1851.86C2165.03 1840.62 2231.42 1804.56 2295.72 1766.92C2372.04 1722.23 2436.86 1671.39 2519.72 1619.77C2705.68 1504.38 2887.08 1470.66 2975.94 1389.9C3113.29 1360.76 3235.88 1365.2 3360.55 1362.85C3436.22 1390.42 3502.48 1412.64 3562.2 1404.14C3803.45 1565.41 3864.09 1626.3 4181.52 1695.44C4305.68 1722.36 4451.26 1722.62 4573.58 1721.57C4595.28 1721.57 4615.66 1721.57 4634.48 1721.57C4855.87 1714.65 4984.07 1691.65 5202.18 1684.2C5378.09 1678.19 5490.87 1736.47 5632.66 1775.68C5685.46 1789.91 5738.99 1801.25 5793.02 1809.65C6054.39 1852.26 6152.67 1845.98 6321.51 1798.28C6455.86 1760.39 6616.99 1700.53 6846.35 1614.41C7029.31 1546.06 7270.56 1450.67 7580.68 1360.36" stroke="#4A3AFF" stroke-width="7" stroke-miterlimit="10"/>
<path d="M99.0137 856.84C311.151 927.455 513.292 1025.14 700.432 1147.48C718.075 1159.24 736.24 1169.96 754.144 1180.8C1083.87 1381.66 1120.07 1465.04 1340.53 1602.39C1491.61 1696.48 1571.2 1775.94 1742.52 1818.41C1849.87 1843.61 1960.97 1848.62 2070.16 1833.18C2163.47 1821.02 2228.42 1783.12 2292.32 1743.66C2366.68 1696.35 2430.46 1644.08 2515.27 1591.8C2706.21 1474.19 2895.57 1447.14 2979.99 1372.78C3121.53 1349.12 3245.55 1362.98 3368.26 1370.56C3444.71 1404.93 3509.93 1434.33 3567.3 1430.8C3808.68 1620.55 3848.01 1705.24 4161.01 1783.65C4285.81 1815.14 4433.09 1815.8 4555.16 1813.83L4616.32 1812.66C4841.1 1808.74 4964.86 1768.23 5186.37 1760.39C5366.33 1753.85 5477.41 1808.08 5620.64 1845.33C5674.02 1858.83 5728.12 1869.26 5782.69 1876.56C6043.41 1912.89 6145.48 1899.04 6313.54 1844.68C6448.02 1801.29 6608.11 1736.47 6838.25 1649.43C7021.21 1580.56 7265.2 1486.73 7580.81 1405.19" stroke="#4A3AFF" stroke-width="7" stroke-miterlimit="10"/>
<path d="M91.1738 865.073C300.935 932.1 501.821 1024.25 689.456 1139.51C707.229 1150.75 725.395 1160.68 743.299 1170.74C1077.86 1360.76 1117.19 1434.98 1334 1567.76C1488.08 1662.5 1563.36 1743.92 1737.3 1787.31C1845.34 1812.55 1957.19 1816.99 2066.89 1800.37C2161.24 1787.31 2225.41 1748.1 2288.4 1706.28C2361.46 1658.32 2424.84 1604.22 2510.57 1551.03C2706.6 1430.41 2903.67 1410.94 2983.78 1342.85C3129.63 1324.69 3259.66 1327.56 3375.84 1365.59C3459.09 1392.9 3517.38 1444 3571.87 1444C3813.25 1662.24 3831.15 1770.71 4139.97 1859.7C4265.16 1896.03 4414.41 1896.95 4535.82 1894.21C4558.03 1894.21 4578.68 1893.16 4597.37 1892.64C4825.55 1886.63 4944.86 1838.67 5169.91 1825.07C5353.52 1813.97 5463.3 1868.2 5607.97 1903.48C5661.85 1916.42 5716.5 1925.93 5771.59 1931.97C6032.17 1962.29 6137.51 1940.73 6304.92 1879.7C6439.39 1830.69 6598.44 1760.91 6829.36 1673.09C7012.32 1603.7 7259.06 1511.43 7580.15 1437.86" stroke="#4A3AFF" stroke-width="7" stroke-miterlimit="10"/>
<path d="M83.9863 873.045C291.457 936.895 491.126 1023.77 679.262 1132.06C697.166 1142.64 715.463 1151.79 733.236 1161.2C1071.97 1339.45 1114.84 1403.75 1327.47 1533.13C1484.29 1628.53 1555.38 1711.9 1732.59 1756.07C1841.19 1782.07 1953.84 1786.51 2064.15 1769.14C2159.81 1755.16 2223.06 1713.6 2285.27 1670.61C2356.88 1621.08 2419.48 1565.14 2507.43 1511.17C2708.3 1387.94 2913.21 1375.78 2989.14 1313.84C3139.04 1300.77 3271.69 1315.28 3384.6 1361.54C3469.42 1396.3 3526 1453.02 3578.54 1459.42C3819.92 1706.28 3816.39 1838.4 4121.15 1937.46C4246.87 1978.63 4397.55 1979.67 4518.83 1976.67L4580.77 1974.58C4812.22 1966.6 4927.22 1911.06 5155.79 1891.98C5343.33 1876.17 5451.53 1931.19 5597.77 1964.51C5652.17 1976.99 5707.36 1985.72 5762.96 1990.65C6023.29 2015.09 6132.02 1985.68 6298.77 1917.99C6433.25 1863.49 6591.12 1788.74 6822.96 1700.01C7068.36 1602.37 7321.98 1526.8 7580.81 1474.19" stroke="#4A3AFF" stroke-width="7" stroke-miterlimit="10"/>
<path d="M76.4062 875.658C281.63 936.644 480.084 1018.44 668.677 1119.77C686.711 1129.71 705.007 1138.2 722.781 1146.83C1066.09 1313.71 1112.36 1368.99 1320.93 1493.92C1480.89 1589.97 1547.54 1675.31 1726.71 1720.4C1836 1746.51 1949.43 1750.33 2060.22 1731.63C2156.93 1716.74 2219.4 1673.35 2280.95 1628.53C2351 1577.43 2412.82 1519.8 2502.07 1465.04C2708.04 1339.19 2920.27 1334.36 2992.28 1278.56C3146.49 1271.5 3281.23 1296.85 3391.4 1351.08C3477.65 1393.56 3532.67 1456.81 3582.72 1467.92C3824.23 1743.27 3799.14 1899.17 4099.72 2008.29C4225.96 2054.29 4378.47 2055.34 4499.22 2051.29C4521.83 2050.5 4542.87 2049.46 4561.56 2048.67C4796.8 2038.61 4906.96 1975.75 5138.8 1951.05C5330 1930.67 5436.9 1985.16 5584.57 2017.44C5639.52 2029.18 5695.26 2036.86 5751.33 2040.44C6011.52 2059.13 6123.52 2021.62 6289.63 1947.39C6424.1 1887.28 6580.93 1807.69 6813.55 1717.91C7061.12 1619.75 7318.27 1547.7 7580.81 1502.94" stroke="#4A3AFF" stroke-width="7" stroke-miterlimit="10"/>
<path d="M68.8262 868.209C271.841 926.278 469.092 1002.88 658.091 1097.04C676.125 1106.31 694.552 1114.16 712.326 1122.13C1060.34 1277.25 1110.53 1322.73 1314.4 1444.26C1477.36 1540.97 1539.7 1628.4 1721.49 1674.13C1831.38 1700.55 1945.53 1704.02 2056.83 1684.33C2154.71 1668.38 2216.39 1623.3 2277.16 1576.64C2345.77 1524.37 2406.8 1464.65 2497.63 1409.11C2708.56 1280.65 2928.9 1282.87 2996.33 1233.47C3154.72 1231.9 3291.29 1268.75 3399.11 1330.96C3486.4 1381.4 3540.25 1450.67 3587.95 1466.61C3829.46 1770.58 3782.67 1950.14 4079.33 2069.19C4205.83 2120.16 4360.3 2121.46 4480.67 2116.5C4503.4 2115.58 4524.58 2114.41 4543.26 2113.49C4781.51 2101.47 4887.36 2030.9 5122.6 2000.71C5317.58 1975.62 5423.18 2030.25 5572.03 2060.96C5627.58 2072 5683.9 2078.77 5740.48 2081.21C6000.55 2094.28 6115.68 2048.54 6281.13 1967.78C6415.61 1902.44 6571.52 1817.49 6804.92 1726.93C7054.29 1627.77 7314.65 1558.85 7580.41 1521.63" stroke="#4A3AFF" stroke-width="7" stroke-miterlimit="10"/>
<path d="M61.377 860.76C262.168 916.147 458.176 987.6 647.505 1074.43C665.67 1083.05 684.097 1089.98 701.871 1097.3C1054.72 1241.05 1107 1276.99 1307.86 1394.6C1473.7 1491.83 1531.86 1581.35 1716.13 1628C1826.66 1654.8 1941.62 1657.87 2053.43 1637.02C2152.49 1619.9 2213.39 1573.38 2273.5 1524.76C2340.68 1470.53 2400.79 1409.5 2493.19 1353.18C2709.21 1222.49 2937.52 1231.38 3000.38 1188.25C3144.65 1189.97 3285.5 1232.42 3406.69 1310.7C3494.9 1369.25 3547.83 1444.39 3593.04 1465.3C3834.68 1797.76 3766.07 2001.1 4058.94 2130.09C4185.71 2186.15 4342.14 2187.2 4461.98 2181.71C4485.11 2180.66 4506.28 2179.36 4525.1 2178.18C4766.48 2163.81 4868.41 2086.7 5107.04 2050.37C5305.56 2020.71 5410.11 2075.33 5560.4 2104.47C5612.67 2114.54 5667.82 2116.11 5730.29 2121.86C5989.31 2145.77 6108.62 2075.46 6273.42 1988.04C6407.9 1916.68 6562.76 1827.3 6796.95 1735.82C7048.37 1635.68 7312.1 1569.75 7581.07 1539.79" stroke="#4A3AFF" stroke-width="7" stroke-miterlimit="10"/>
<path d="M53.7988 853.312C252.463 906.085 447.29 972.365 636.921 1051.69C655.217 1059.53 673.644 1065.93 691.548 1072.47C1048.84 1203.15 1105.17 1231.25 1301.33 1344.94C1470.31 1442.82 1523.5 1534.3 1710.9 1581.87C1822.26 1609.02 1938.19 1611.69 2050.69 1589.71C2150.79 1571.42 2210.91 1523.33 2270.37 1472.88C2335.71 1417.08 2395.31 1354.35 2489.27 1297.24C2710.39 1163.42 2946.67 1179.63 3004.96 1143.17C3153.08 1150.94 3295.57 1202.46 3414.4 1291.23C3503.13 1357.75 3555.41 1438.9 3598.14 1464.65C3839.91 1825.6 3749.35 2052.72 4038.42 2191.77C4165.58 2252.8 4323.84 2253.72 4443.55 2247.57C4466.81 2246.4 4488.25 2244.83 4506.93 2243.65C4751.71 2227.06 4849.2 2141.98 5091.36 2100.69C5293.8 2066.32 5396.39 2121.33 5548.77 2148.65C5605.66 2156.56 5662.94 2161.45 5720.36 2163.28C5979.77 2180.14 6101.7 2103.04 6265.97 2009.08C6400.32 1932.1 6554.27 1837.88 6788.72 1745.49C7042.01 1644.57 7308.93 1581.94 7580.68 1559.66" stroke="#4A3AFF" stroke-width="7" stroke-miterlimit="10"/>
<path d="M46.2168 845.863C242.843 896.156 436.552 957.234 626.464 1028.82C644.76 1036.01 663.187 1041.89 681.091 1047.51C1043.09 1166.69 1102.82 1185.25 1295.32 1295.81C1466.78 1393.56 1515.65 1487.26 1705.54 1535.61C1817.37 1563.14 1933.92 1565.46 2046.76 1542.41C2148.04 1522.93 2207.51 1473.27 2266.05 1421C2330.35 1363.76 2388.77 1299.2 2484.43 1241.31C2710.39 1104.88 2954.9 1128.66 3008.48 1097.56C3160.88 1111.08 3305.37 1171.43 3422.11 1270.32C3511.1 1345.07 3562.85 1431.98 3603.24 1462.56C3845.01 1852.13 3732.49 2103.82 4018.04 2252.02C4145.45 2318.14 4305.55 2318.93 4424.73 2312.13C4448.25 2310.82 4469.82 2309.13 4488.51 2307.69C4736.81 2288.87 4829.73 2196.48 5075.42 2149.69C5281.64 2110.49 5382.79 2165.9 5536.35 2191.51C5593.77 2198.99 5651.6 2202.97 5709.51 2203.4C5969.31 2213.2 6093.86 2129.3 6257.48 2028.68C6391.95 1946.22 6544.99 1847.03 6780.22 1754.24C7035.55 1652.43 7305.79 1592.97 7580.28 1578.21" stroke="#4A3AFF" stroke-width="7" stroke-miterlimit="10"/>
<path d="M38.8984 838.414C262.764 895.261 463.629 953.154 616.009 1006.21C634.567 1012.75 652.993 1017.71 670.767 1022.94C1037.6 1129.58 1100.59 1139.51 1288.39 1245.1C1463.38 1343.9 1508.47 1439.69 1700.44 1488.96C1812.89 1516.82 1930.2 1518.74 2043.5 1494.58C2145.95 1473.8 2204.76 1422.83 2262.53 1368.6C2325.26 1309.79 2382.89 1243.53 2480.12 1184.86C2711.17 1045.81 2963.66 1076.78 3012.67 1052.47C3169.24 1071.9 3315.48 1140.96 3429.95 1249.54C3519.08 1332.53 3576.18 1420.09 3608.59 1460.73C3909.17 1838.8 3715.63 2154.79 3997.78 2312.39C4125.33 2383.75 4287.64 2384.27 4406.3 2376.82C4430.09 2375.38 4451.65 2373.42 4470.47 2371.85C4721.78 2350.81 4810.26 2251.1 5059.61 2198.96C5269.62 2154.92 5369.33 2210.59 5524.46 2234.37C5582.28 2242.95 5640.78 2246.06 5699.18 2243.65C5959.12 2234.77 6086.54 2155.57 6249.63 2048.54C6383.98 1960.33 6535.84 1856.31 6772.38 1762.22C7029.9 1659.55 7303.54 1603.23 7580.68 1595.86" stroke="#4A3AFF" stroke-width="7" stroke-miterlimit="10"/>
<path d="M31.1875 830.964C257.536 886.113 457.094 938.386 605.292 983.472C623.981 989.222 642.407 993.535 660.181 998.109C1032.11 1092.2 1098.11 1093.64 1281.72 1195.83C1459.85 1295.15 1500.49 1393.3 1694.95 1443.35C1808.1 1471.58 1926.26 1473.1 2040.1 1447.79C2143.6 1425.57 2201.63 1373.3 2258.61 1317.11C2320.03 1256.73 2376.22 1188.78 2475.54 1129.31C2711.56 987.523 2971.24 1025.81 3016.72 1007.65C3196.28 1033.79 3337.42 1127.35 3437.53 1229.81C3526.52 1321.29 3582.85 1415.77 3613.56 1459.81C3904.34 1876.3 3698.51 2206.67 3977.13 2373.81C4104.81 2450.26 4269.34 2450.52 4387.48 2442.42C4411.53 2440.72 4433.36 2438.76 4452.04 2437.06C4706.75 2413.67 4790.91 2306.38 5043.66 2249.01C5257.33 2200.27 5355.61 2256.33 5512.17 2278.28C5570.58 2286.2 5629.63 2288.35 5688.47 2284.69C5948.53 2270.7 6078.96 2182.88 6241.53 2069.19C6375.75 1975.36 6526.69 1866.5 6764.28 1771.49C6948.41 1697.92 7216.06 1618.07 7580.81 1614.67" stroke="#4A3AFF" stroke-width="7" stroke-miterlimit="10"/>
<path d="M23.6074 823.516C252.308 877.357 450.56 923.358 594.707 960.864C613.525 965.699 631.952 969.358 649.726 973.932C1025.97 1054.56 1095.76 1047.64 1275.19 1146.17C1454.62 1244.71 1492.65 1346.25 1689.73 1397.09C1803.47 1425.8 1922.42 1426.96 2036.7 1400.48C2141.25 1376.7 2198.75 1323.38 2254.95 1265.36C2314.93 1203.54 2370.73 1133.76 2471.1 1073.51C2712.22 929.761 2979.73 974.586 3020.77 962.694C3204.64 994.319 3345.91 1098.87 3445.24 1209.69C3533.97 1308.74 3588.99 1410.81 3618.66 1457.98C3898.2 1912.11 3681.26 2257.77 3956.74 2434.19C4084.42 2516 4251.05 2515.87 4368.93 2507.11C4393.1 2505.28 4415.06 2503.06 4434.27 2501.23C4692.25 2475.09 4772.09 2361.14 5028.24 2298.15C5245.7 2244.7 5342.67 2301.15 5500.67 2321.28C5559.68 2328.58 5619.28 2329.8 5678.54 2324.94C5938.73 2305.73 6071.9 2209.28 6234.08 2089.05C6368.17 1989.6 6518.19 1875.91 6756.83 1779.99C6941.23 1705.89 7211.35 1627.48 7581.59 1633.1" stroke="#4A3AFF" stroke-width="7" stroke-miterlimit="10"/>
<path d="M16.1582 816.067C247.081 868.34 444.025 908.329 584.121 938.387C603.071 942.438 621.497 945.574 639.271 948.711C1020.09 1016.8 1093.41 1001.64 1268.66 1096.64C1453.05 1196.49 1484.68 1299.2 1684.37 1350.95C1798.75 1380.17 1918.55 1380.93 2033.3 1353.18C2138.9 1327.69 2195.88 1273.33 2251.29 1213.61C2309.83 1150.09 2364.72 1078.74 2466.79 1017.58C2712.74 870.562 2990.19 904.148 3024.82 917.608C3203.6 986.74 3354.28 1070.12 3452.95 1189.56C3541.29 1296.59 3595.79 1405.71 3623.88 1457.33C3891.14 1948.05 3663.87 2310.17 3936.36 2495.87C4064.04 2582.91 4232.88 2582.25 4350.24 2572.98C4374.81 2571.02 4396.76 2568.66 4415.58 2566.7C4676.95 2538.74 4752.23 2416.94 5011.9 2348.46C5233.03 2290.18 5328.56 2347.15 5488.13 2365.45C5547.73 2372.11 5607.88 2372.42 5667.56 2366.36C5927.88 2342.06 6063.93 2236.86 6225.46 2110.09C6359.54 2005.55 6508.65 1886.36 6748.2 1789.53C6932.73 1714.91 7205.6 1638.2 7581.2 1652.44" stroke="#4A3AFF" stroke-width="7" stroke-miterlimit="10"/>
<path d="M8.58008 808.618C241.855 859.977 437.362 892.909 573.537 915.387C592.617 918.523 611.044 921.137 628.948 923.62C1014.21 978.768 1091.19 955.637 1262.12 1046.85C1450.31 1147.48 1476.45 1252.03 1679.14 1304.3C1794.19 1333.89 1914.81 1334.25 2030.04 1305.35C2136.41 1278.03 2193 1222.88 2247.5 1161.59C2304.74 1096.25 2358.71 1023.46 2462.35 961.648C2713.39 812.016 2996.72 868.602 3028.87 872.392C3224.9 895.784 3362.51 1041.23 3460.14 1169.3C3526.17 1258.65 3582.59 1354.71 3628.46 1455.89C3883.3 1982.29 3645.97 2361.79 3915.97 2556.77C4043.52 2649.03 4214.72 2648.25 4331.68 2638.19C4356.38 2636.1 4378.6 2633.48 4397.03 2631.39C4661.54 2600.68 4732.5 2471.7 4995.83 2398.12C5220.48 2334.87 5314.84 2392.76 5475.84 2408.97C5536.06 2414.98 5596.77 2414.33 5656.84 2407.01C5917.43 2377.6 6055.96 2263.26 6217.23 2130.35C6351.05 2019.4 6499.25 1896.17 6739.97 1798.55C6924.76 1723.4 7199.99 1648.13 7581.2 1671.13" stroke="#4A3AFF" stroke-width="7" stroke-miterlimit="10"/>
<path d="M1 801.169C236.235 850.306 430.566 877.227 562.951 892.647C1001.01 943.614 1081.25 905.716 1255.59 997.194C1446.39 1097.43 1469 1205.11 1673.78 1258.56C1789.48 1288.65 1910.94 1288.65 2026.64 1258.56C2245.93 1198.45 2251.94 1028.3 2457.9 905.716C2713.92 753.339 3004.96 820.379 3032.92 827.306C3405.64 918.784 3579.45 1327.95 3634.08 1454.59C3876.24 2015.48 3628.85 2413.41 3895.45 2617.67C4050.18 2736.2 4272.87 2709.15 4378.99 2696.08C4646.77 2663.41 4713.42 2526.97 4980.15 2447.78C5280.73 2358.39 5346.99 2486.99 5646.65 2447.78C6124.7 2384.66 6201.41 2024.37 6731.35 1807.43C6916.27 1731.77 7194.11 1658.06 7580.81 1689.82" stroke="#4A3AFF" stroke-width="7" stroke-miterlimit="10"/>
<path d="M8.05859 817.504C239.112 866.641 430.175 895.914 562.561 912.119C988.99 965.96 1072.24 930.414 1245.53 1022.02C1432.8 1121.34 1457.76 1225.89 1657.45 1279.73C1770.73 1309.66 1889.63 1311.18 2003.64 1284.17C2220.06 1233.08 2228.42 1067.11 2431.24 949.233C2681.77 802.606 2964.05 863.635 2996.72 868.993C3302.4 918.522 3470.98 1219.75 3553.97 1380.49C3570.96 1413.29 3583.24 1441.52 3593.18 1461.9C3841.48 1992.87 3607.03 2375.25 3869.71 2568.14C4026.53 2683.01 4251.05 2654.13 4361.61 2641.71C4462.93 2630.59 4561.14 2599.97 4650.82 2551.54C4742.3 2505.67 4827.9 2453.92 4968.65 2419.55C5011.78 2409.1 5050.2 2403.35 5084.7 2398.38C5293.8 2368.19 5374.43 2442.55 5626.39 2397.73C5723.87 2380.62 5817.73 2347.08 5903.97 2298.54C6138.03 2167.86 6284.4 1932.63 6646.79 1760.91C6668.05 1750.8 6690.27 1740.96 6713.44 1731.37C6900.06 1653.75 7182.08 1576.51 7574.67 1606.18" stroke="#4A3AFF" stroke-width="7" stroke-miterlimit="10"/>
<path d="M15.1133 833.84C241.462 882.977 429.781 913.426 562.297 931.46C976.834 988.046 1062.69 955.114 1235.46 1046.98C1419.34 1144.21 1446.52 1247.85 1640.59 1300.77C1751.54 1330.62 1867.98 1333.75 1980.37 1309.92C2193.52 1267.19 2204.89 1106.58 2404.45 992.62C2649.62 852.658 2924.45 897.744 2960.26 910.682C3243.07 1011.96 3426.55 1240.66 3512.02 1392.12C3529.4 1422.96 3541.42 1450.01 3551.22 1469.09C3805.28 1970.79 3584.68 2336.7 3843.18 2518.61C4001.31 2629.69 4228.31 2599.11 4343.31 2587.22C4445.43 2576.74 4544.95 2548.66 4637.49 2504.24C4730.41 2462.81 4817.31 2417.98 4956.36 2391.46C4999.62 2383.09 5038.3 2379.96 5072.8 2374.99C5281.25 2344.8 5358.35 2403.48 5605.22 2347.55C5701.57 2325.34 5793.83 2288.12 5878.62 2237.25C6103.92 2106.57 6257.61 1863.1 6627.32 1685.63C6648.88 1675.44 6671.36 1665.25 6694.75 1655.32C6882.94 1575.73 7169.14 1494.97 7567.74 1522.41" stroke="#4A3AFF" stroke-width="7" stroke-miterlimit="10"/>
<path d="M22.1719 850.175C243.816 899.181 429.26 931.46 561.645 951.454C964.42 1010.39 1053.16 980.466 1225.14 1072.34C1405.49 1168 1435.02 1269.67 1624.39 1322.33C1732.95 1351.92 1846.83 1356.39 1957.37 1335.4C2166.47 1300.77 2181.5 1145.52 2377.79 1036.01C2617.6 902.187 2883.68 936.426 2924.06 952.108C3148.62 1042.11 3339.53 1199.89 3470.2 1403.49C3487.97 1432.37 3499.87 1458.24 3509.41 1476.15C3768.95 1947.52 3562.46 2298.41 3816.39 2469.34C3976.35 2576.76 4205.44 2544.22 4324.89 2533.12C4427.82 2523.07 4528.64 2497.47 4623.9 2457.19C4718.52 2420.21 4806.86 2382.44 4943.82 2363.49C4987.47 2357.48 5026.28 2356.82 5060.78 2351.86C5268.97 2321.54 5341.89 2364.93 5583.53 2297.62C5678.58 2270.21 5769.23 2229.37 5852.74 2176.35C6069.29 2044.75 6230.95 1794.36 6607.19 1610.62C6628.89 1600.17 6651.63 1589.76 6675.41 1579.39C6865.17 1497.97 7155.68 1413.68 7560.16 1439.03" stroke="#4A3AFF" stroke-width="7" stroke-miterlimit="10"/>
<path d="M29.2266 866.38C246.166 915.517 428.865 949.495 561.512 970.927C952.525 1032.22 1044.27 1005.3 1214.94 1097.3C1391.63 1191.52 1424.04 1290.97 1607.66 1343.51C1713.94 1373.24 1825.43 1379.49 1934.37 1361.8C2140.46 1335.66 2158.11 1185.38 2351.26 1080.18C2585.71 951.455 2839.9 1002.68 2887.86 993.927C3164.26 1049.73 3338.07 1281.43 3428.51 1415.25C3446.67 1442.04 3458.3 1466.61 3468.5 1483.47C3733.79 1924.92 3541.42 2259.86 3790.64 2419.55C3952.69 2523.32 4183.48 2488.95 4307.5 2478.36C4411.35 2468.8 4513.5 2445.7 4611.35 2409.62C4707.8 2377.08 4797.19 2346.5 4932.45 2335C4976.36 2331.21 5015.3 2333.17 5050.06 2328.21C5257.99 2297.89 5326.73 2325.46 5563.92 2247.31C5664.42 2214.12 5746.88 2166.55 5828.95 2114.8C6037.01 1982.94 6205.85 1724.19 6589.29 1535.09C6611.07 1524.37 6634.07 1513.7 6658.29 1503.07C6849.75 1419.56 7144.44 1331.74 7554.8 1355.01" stroke="#4A3AFF" stroke-width="7" stroke-miterlimit="10"/>
<path d="M36.1562 882.715C247.999 931.722 428.346 967.398 561.646 989.614C940.636 1053.13 1034.73 1029.86 1205.41 1121.34C1378.44 1214.39 1412.81 1311.49 1591.85 1363.76C1695.66 1393.48 1804.53 1401.23 1911.5 1386.5C2113.68 1367.16 2134.85 1223.54 2324.74 1122.78C2553.7 1001.38 2798.6 1048.03 2851.92 1035.35C3120.09 1086.06 3293.77 1301.69 3386.95 1426.62C3405.51 1451.45 3417.01 1474.84 3427.47 1490.52C3698.38 1901.78 3520.51 2220.91 3764.77 2369.76C3928.91 2469.87 4161.53 2433.54 4289.86 2423.73C4420.55 2413.8 4512.69 2386.75 4598.68 2362.18C4696.95 2334.09 4788.43 2293.31 4920.82 2306.51C4959.95 2310.73 4999.46 2310.07 5038.44 2304.55C5246.23 2274.23 5310.52 2286.65 5543.15 2196.87C5640.51 2159.36 5721.53 2107.74 5804.52 2053.12C6004.08 1921.39 6180.11 1654.66 6570.6 1459.42C6592.64 1448.44 6615.91 1437.47 6640.39 1426.49C6833.41 1341.15 7132.29 1249.81 7548.66 1270.85" stroke="#4A3AFF" stroke-width="7" stroke-miterlimit="10"/>
<path d="M43.2109 899.182C250.872 948.188 427.951 985.563 560.729 1009.22C928.349 1074.56 1025.45 1054.69 1195.34 1146.43C1365.23 1238.17 1401.7 1332.79 1575.38 1385.19C1726.71 1430.8 1852.82 1421 1889.02 1412.51C2082.05 1366.77 2111.84 1262.87 2298.6 1166.56C2522.07 1051.3 2757.96 1093.77 2816.24 1077.3C3076.05 1123.04 3249.47 1322.07 3345.79 1438.38C3364.6 1461.25 3375.97 1483.47 3386.56 1498.1C3663.09 1879.18 3500.13 2182.1 3739.41 2320.63C3905.91 2417.07 4139.97 2378.78 4272.87 2369.63C4405.78 2360.48 4498.96 2335.92 4586.52 2315.14C4686.5 2291.48 4781.11 2256.07 4909.71 2278.68C4948.52 2285.85 4988.22 2286.78 5027.33 2281.42C5234.86 2251.1 5294.84 2248.36 5522.76 2147.08C5617.11 2105.26 5696.31 2049.46 5779.43 1992.48C5970.62 1861.8 6153.97 1586.05 6551.39 1384.67C6573.61 1373.43 6597.13 1362.19 6621.96 1350.95C6816.68 1263.66 7119.74 1168.78 7541.99 1187.6" stroke="#4A3AFF" stroke-width="7" stroke-miterlimit="10"/>
<path d="M50.2695 915.125C253.225 964.523 427.43 1003.73 560.338 1028.3C916.197 1095.21 1016.17 1079.13 1185.28 1170.87C1351.25 1261.04 1390.46 1353.83 1559.04 1406.1C1706.2 1451.71 1828.78 1446.09 1865.5 1437.99C2054.74 1395.91 2087.67 1301.82 2271.41 1209.95C2489.4 1100.7 2715.75 1139.25 2779.52 1118.47C3031.09 1159.11 3203.86 1340.63 3303.44 1449.49C3318.14 1467.2 3331.93 1485.65 3344.74 1504.77C3626.63 1855.65 3478.96 2142.24 3712.49 2270.57C3881.47 2363.23 4116.97 2322.85 4254.32 2314.61C4386.44 2306.51 4483.54 2284.16 4572.8 2267.31C4674.6 2248.1 4772.36 2218.95 4897.03 2249.93C4935.63 2260.15 4975.85 2262.72 5015.43 2257.51C5222.83 2227.06 5278.38 2209.41 5501.72 2096.37C5593.2 2050.24 5670.3 1990.52 5754.07 1930.67C5937.04 1799.98 6127.58 1516.4 6531.92 1308.87C6554.31 1297.37 6578.09 1285.87 6603.27 1274.37C6799.3 1185.12 7106.81 1086.71 7535.07 1103.44" stroke="#4A3AFF" stroke-width="7" stroke-miterlimit="10"/>
<path d="M57.3242 931.199C255.575 980.336 426.905 1020.85 560.074 1047.51C904.041 1116.25 1006.89 1103.83 1175.87 1195.57C1338.31 1284.31 1379.87 1374.74 1543.23 1426.75C1686.98 1472.36 1805.38 1470.92 1843.15 1463.21C2028.73 1425.18 2065.32 1340.5 2245.41 1252.94C2457.9 1149.83 2675.49 1184.33 2743.97 1160.03C2987.18 1195.57 3159.03 1360.89 3262.41 1460.6C3277.24 1476.84 3291.16 1493.9 3304.09 1511.7C3591.6 1832.26 3459.22 2102.25 3687.01 2220.65C3858.47 2309.65 4095.27 2267.44 4237.06 2259.86C4370.36 2252.54 4469.69 2232.54 4560.51 2219.61C4668.47 2204.76 4777.99 2205.33 4885.79 2221.31C4931.79 2227.19 4970.48 2238.69 5004.59 2234.37C5211.72 2203.79 5262.82 2171.52 5481.59 2046.58C5569.67 1996.27 5645.34 1932.23 5729.89 1869.77C5904.88 1740.13 6102.22 1447.53 6514.01 1233.86C6536.49 1222.23 6560.67 1210.34 6586.28 1198.45C6784.14 1106.97 7095.96 1005.3 7529.71 1019.93" stroke="#4A3AFF" stroke-width="7" stroke-miterlimit="10"/>
<path d="M65.0371 953.676C258.584 1002.68 427.169 1045.15 560.338 1072.99C892.02 1143.17 997.745 1134.41 1165.15 1226.54C1324.2 1313.84 1367.98 1402.05 1526.24 1453.93C1665.29 1499.54 1780.56 1502.15 1819.37 1494.97C2001.55 1461.38 2040.88 1385.59 2218.22 1302.47C2425.1 1205.5 2633.68 1235.95 2707.12 1207.86C2942.36 1238.3 3112.25 1386.37 3219.94 1478.63C3234.91 1493.39 3249 1509.01 3262.15 1525.42C3554.23 1815.66 3438.44 2068.93 3660.22 2177.53C3834.42 2262.86 4072.27 2218.82 4218.64 2211.9C4352.86 2205.49 4454.53 2187.85 4546.92 2178.83C4652.26 2168.51 4750.4 2177.27 4873.64 2199.61C4920.3 2208.11 4958.85 2221.83 4992.83 2216.86C5199.7 2186.28 5246.49 2139.37 5460.68 2002.28C5545.63 1947.79 5619.47 1879.7 5704.67 1814.36C5871.82 1686.03 6075.95 1384.41 6494.15 1164.47C6516.89 1152.45 6541.2 1140.42 6567.2 1128.14C6766.63 1035.09 7082.24 929.631 7522.39 942.046" stroke="#4A3AFF" stroke-width="7" stroke-miterlimit="10"/>
<path d="M71.4414 1010.26C260.283 1059.27 425.993 1103.05 559.293 1132.71C879.867 1204.2 988.467 1199.75 1155.09 1291.23C1310.61 1377.09 1356.74 1463.21 1509.91 1514.83C1644.77 1560.44 1756.38 1567.11 1796.37 1560.44C1975.15 1531.56 2017.36 1464.39 2191.57 1385.72C2392.82 1294.24 2592.38 1321.42 2670.92 1289.27C2897.53 1315.41 3053.18 1466.48 3178.25 1530.12C3194.84 1547.89 3209.22 1562.27 3220.72 1572.46C3517.77 1832.26 3418.58 2069.06 3634.08 2167.86C3811.16 2249.27 4050.06 2203.4 4200.87 2197.26C4336 2191.77 4440.02 2176.48 4533.99 2171.12C4641.15 2165.24 4741.13 2182.62 4861.36 2210.98C4908.67 2222.09 4947.09 2238.03 4980.93 2232.94C5187.68 2202.36 5230.02 2141.46 5439.51 1991.7C5521.45 1933.28 5593.46 1861.01 5679.32 1792.66C5838.76 1665.77 6049.56 1354.88 6474.68 1128.79C6497.59 1116.68 6522.21 1104.31 6548.52 1091.68C6749.64 997.325 7069.82 888.335 7515.46 899.182" stroke="#4A3AFF" stroke-width="7" stroke-miterlimit="10"/>
<path d="M78.1055 1061.23C262.635 1110.24 425.47 1155.45 558.9 1186.69C867.843 1259.35 979.841 1259.35 1145.03 1351.35C1297.02 1435.64 1345.5 1519.67 1493.44 1571.16C1624.12 1616.63 1732.07 1626.83 1773.37 1621.21C1948.88 1597.29 1993.84 1538.62 2165.43 1464.39C2361.46 1379.44 2551.61 1402.05 2635.24 1366.11C2853.49 1386.5 3007.57 1523.85 3136.95 1576.78C3150.51 1590.3 3164.87 1603 3179.95 1614.8C3481.57 1844.41 3399.37 2063.44 3608.47 2153.48C3788.55 2230.98 4028.23 2183.28 4183.49 2178.05C4319.66 2173.35 4426.04 2160.41 4521.44 2159.23C4630.43 2157.79 4732.37 2184.06 4849.99 2218.17C4897.82 2232.02 4936.24 2250.06 4970.09 2244.31C5176.44 2213.6 5214.6 2138.19 5419.39 1976.27C5497.8 1913.94 5568.5 1837.62 5654.62 1766.27C5806.35 1641.07 6023.68 1320.64 6455.73 1088.28C6478.73 1075.21 6503.69 1063.19 6530.35 1050.38C6733.05 953.285 7057.02 841.289 7509.06 848.999" stroke="#4A3AFF" stroke-width="7" stroke-miterlimit="10"/>
<path d="M85.4219 1112.2C265.116 1161.2 425.206 1207.86 558.506 1240.92C855.818 1314.36 969.907 1318.68 1134.96 1410.81C1283.42 1493.66 1334.26 1575.6 1477.1 1626.83C1603.87 1672.3 1707.89 1676.09 1750.37 1681.45C1922.22 1703.41 1970.31 1612.19 2138.24 1542.54C2328.39 1464.13 2509.78 1482.29 2598.52 1442.43C2808.53 1457.72 2960.78 1580.83 3095.13 1623.04C3108.82 1635.23 3123.31 1646.5 3138.52 1656.75C3444.58 1856.05 3379.63 2057.43 3582.85 2138.58C3765.81 2212.03 4006.4 2162.76 4166.23 2158.19C4303.45 2154.4 4412.05 2143.94 4509.02 2146.56C4619.84 2149.56 4723.48 2184.98 4838.61 2224.97C4887.1 2241.56 4925.26 2261.56 4959.11 2256.59C5165.33 2225.75 5199.31 2136.23 5399.13 1961.77C5475.06 1895.51 5543.54 1815.01 5630.57 1740.65C5774.33 1617.29 5998.59 1287.18 6437.56 1048.03C6460.82 1035.48 6485.96 1022.42 6512.97 1008.83C6717.23 909.767 7045.51 793.72 7503.44 799.731" stroke="#4A3AFF" stroke-width="7" stroke-miterlimit="10"/>
<path d="M92.4805 1163.29C267.469 1212.82 424.554 1260.26 558.116 1295.02C843.796 1369.25 960.63 1378.14 1124.9 1470.4C1269.83 1551.68 1323.02 1631.01 1460.64 1683.28C1583.35 1728.76 1683.85 1735.56 1727.24 1742.48C1894.78 1768.62 1946.66 1686.55 2111.58 1621.34C2296.11 1548.29 2468.62 1563.18 2562.32 1519.41C2763.97 1529.73 2915.17 1638.33 3052.92 1669.95C3066.74 1680.85 3081.38 1690.68 3096.7 1699.36C3406.95 1868.46 3360.03 2052.2 3555.67 2124.47C3742.16 2193.6 3983.14 2142.77 4147.28 2139.11C4285.55 2136.1 4396.5 2128.13 4495.04 2134.66C4607.69 2142.11 4713.03 2186.94 4825.68 2231.76C4874.68 2251.36 4912.85 2273.32 4946.56 2268.22C5152.52 2237.38 5182.58 2133.88 5377.83 1946.74C5450.75 1876.56 5517.4 1792.01 5604.96 1714.52C5741.92 1593.11 5971.93 1253.2 6417.83 1008.82C6441.27 995.844 6466.66 982.775 6494.02 969.62C6699.98 868.732 7032.32 749.157 7496.25 753.077" stroke="#4A3AFF" stroke-width="7" stroke-miterlimit="10"/>
<path d="M99.5391 1214.26C269.431 1263.13 424.033 1312.53 557.725 1349.12C832.167 1423.88 951.352 1437.73 1114.84 1529.86C1256.37 1609.71 1311.79 1687.59 1444.3 1738.95C1562.83 1784.43 1659.8 1794.23 1704.24 1802.73C1867.33 1833.7 1923.14 1759.99 2084.93 1699.36C2263.84 1632.32 2427.32 1643.29 2526.12 1595.59C2719.54 1600.82 2868.52 1695.17 3011.23 1716.08C3025.22 1725.64 3040 1733.99 3055.4 1741.04C3369.05 1880.48 3340.82 2045.14 3529.53 2109.44C3718.24 2173.74 3960.8 2122.51 4129.51 2119.24C4268.69 2117.02 4382 2111.4 4482.37 2121.86C4596.72 2133.75 4703.75 2187.2 4814.05 2238.16C4863.58 2260.77 4901.74 2284.43 4935.32 2279.46C5141.02 2248.49 5167.29 2131.27 5356.92 1931.19C5427.1 1857.22 5491.92 1768.62 5580 1687.86C5709.64 1568.8 5945.92 1218.83 6398.62 967.66C6422.14 954.591 6447.89 941.523 6475.59 927.278C6682.86 823.908 7019.51 700.804 7489.33 703.156" stroke="#4A3AFF" stroke-width="7" stroke-miterlimit="10"/>
<path d="M106.594 1265.1C272.173 1313.97 423.639 1364.68 557.462 1402.97C819.88 1478.24 942.071 1496.93 1104.78 1589.19C1242.78 1667.6 1300.81 1743.27 1427.83 1793.97C1542.44 1839.45 1635.88 1852.26 1681.23 1862.32C1840.02 1897.47 1899.48 1832.91 2058.39 1776.72C2231.55 1715.56 2386.02 1722.88 2489.66 1671.26C2674.71 1671.26 2821.99 1751.37 2969.15 1761.56C2983.41 1769.77 2998.37 1776.72 3013.84 1782.34C3332.19 1892.38 3321.74 2037.7 3503.39 2094.15C3696.68 2154.13 3938.45 2100.95 4111.74 2099.12C4251.83 2097.55 4367.49 2094.41 4469.16 2108.79C4585.34 2125.12 4693.81 2188.64 4801.89 2244.18C4851.94 2270.31 4889.97 2295.27 4923.56 2290.18C5129.13 2259.34 5151.61 2128.26 5336.01 1915.25C5403.31 1837.49 5466.69 1745.36 5554.78 1660.8C5677.36 1544.1 5919.65 1184.07 6379.28 926.625C6403.06 913.295 6428.98 899.53 6457.03 885.329C6666.13 780.782 7006.96 654.019 7482.79 653.627" stroke="#4A3AFF" stroke-width="7" stroke-miterlimit="10"/>
<path d="M113.652 1316.32C274.527 1365.2 423.118 1417.08 557.071 1457.33C807.989 1532.87 932.925 1556.65 1094.71 1649.17C1229.19 1725.89 1289.31 1799.59 1411.5 1850.03C1491.49 1881.4 1574.04 1905.8 1658.23 1922.96C1812.71 1962.16 1875.83 1906.75 2031.74 1855.13C2199.14 1799.85 2345.38 1802.86 2453.72 1747.84C2630.41 1743 2776.12 1808.61 2927.72 1808.22C2942.21 1815.04 2957.31 1820.51 2972.81 1824.55C3294.03 1905.05 3302.92 2030.64 3477.26 2079.38C3674.2 2134.4 3916.23 2083.57 4093.83 2079.38C4234.98 2076.12 4352.86 2078.08 4456.23 2096.24C4573.85 2117.02 4684.14 2190.2 4790 2250.71C4840.45 2279.46 4878.61 2306.64 4912.06 2301.55C5117.37 2270.57 5136.32 2125.91 5315.36 1899.82C5379.79 1818.41 5441.21 1721.96 5529.95 1634.28C5645.34 1520.06 5893.65 1149.83 6360.2 886.113C6384.11 873.045 6410.25 858.539 6438.61 844.033C6649.41 737.265 6994.42 607.104 7476.13 604.621" stroke="#4A3AFF" stroke-width="7" stroke-miterlimit="10"/>
<path d="M120.707 1367.42C277.531 1416.3 422.723 1469.22 556.677 1511.17C796.094 1586.71 923.644 1615.72 1084.78 1708.37C1215.47 1783.52 1278.06 1855.26 1395.03 1905.44C1472.98 1937.65 1553.29 1963.87 1635.23 1983.85C1785.65 2026.85 1852.17 1980.72 2005.07 1933.93C2166.73 1884.27 2303.56 1884.14 2417.52 1824.81C2585.97 1814.75 2729.99 1866.11 2885.9 1855C2900.66 1860.39 2915.88 1864.41 2931.38 1867.02C3256.26 1918.64 3284.23 2023.84 3451.12 2065.14C3651.85 2114.8 3893.88 2063.31 4076.06 2060.17C4218.25 2057.82 4338.35 2062.13 4443.29 2084.22C4563 2109.44 4674.21 2192.29 4778.24 2257.77C4828.81 2289.65 4867.23 2318.53 4900.56 2313.44C5105.74 2282.34 5121.16 2124.08 5294.58 1884.93C5356.39 1799.72 5416.12 1699.49 5504.98 1608.4C5613.71 1496.8 5867.77 1116.25 6341.38 846.124C6365.42 832.403 6391.95 818.027 6420.7 803.129C6633.2 694.531 6982.65 560.842 7469.98 556.138" stroke="#4A3AFF" stroke-width="7" stroke-miterlimit="10"/>
<path d="M127.635 1418.52C279.231 1467.26 422.332 1521.37 556.286 1565.67C783.811 1641.33 914.497 1675.57 1074.72 1768.36C1202.14 1842.06 1266.83 1912.11 1378.69 1961.64C1454.61 1994.09 1532.58 2021.5 1612.1 2043.71C1758.6 2090.36 1828.52 2053.77 1978.02 2011.56C2134.06 1967.78 2261.87 1963.99 2380.93 1900.61C2541.02 1885.58 2683.34 1922.56 2843.82 1900.61C2858.83 1904.61 2874.19 1907.19 2889.69 1908.32C3218.24 1931.32 3264.89 2015.22 3424.59 2049.59C3629.11 2093.76 3871.14 2041.75 4057.89 2039.92C4201 2038.35 4323.45 2045.01 4429.96 2071.02C4551.5 2100.69 4663.89 2193.21 4765.95 2263.65C4816.79 2298.8 4855.34 2328.99 4888.67 2324.15C5093.58 2293.05 5105.87 2121.07 5273.54 1868.85C5332.61 1779.99 5391.16 1676.09 5479.63 1581.35C5582.09 1472.49 5841.37 1082.14 6322.04 805.09C6346.21 791.106 6373 776.47 6402.15 761.311C6616.21 650.883 6969.59 513.535 7463.19 507.131" stroke="#4A3AFF" stroke-width="7" stroke-miterlimit="10"/>
<path d="M134.691 1469.61C281.583 1518.49 422.201 1573.38 555.893 1620.03C772.571 1695.44 905.218 1735.29 1064.66 1828.08C1188.68 1900.22 1255.59 1968.04 1362.23 2017.57C1436.14 2050.76 1511.88 2079.69 1589.1 2104.21C1731.68 2154.53 1804.73 2127.34 1951.75 2089.84C2102.04 2051.68 2220.97 2044.36 2345.12 1977.19C2496.98 1957.06 2637.6 1979.67 2802.52 1947.26C2817.86 1949.31 2833.31 1950.4 2848.78 1950.53C3180.73 1965.3 3246.59 2007.38 3398.84 2035.08C3607.16 2072.98 3849.32 2018.62 4040.38 2020.45C4184.14 2021.88 4309.34 2028.81 4417.41 2058.74C4540.78 2092.84 4654.09 2195.17 4754.45 2270.44C4805.55 2308.86 4844.37 2340.75 4877.56 2335.78C5082.35 2304.68 5091.49 2119.24 5253.15 1853.95C5309.61 1761.3 5366.46 1653.75 5455.19 1555.08C5550.59 1448.97 5816.02 1047.64 6302.96 764.839C6327.44 750.551 6354.4 735.696 6383.85 720.276C6599.48 607.627 6957.17 466.881 7456.65 457.994" stroke="#4A3AFF" stroke-width="7" stroke-miterlimit="10"/>
<path d="M141.75 1520.58C283.937 1569.33 421.811 1625.13 555.503 1674C760.942 1749.02 895.941 1794.49 1054.59 1887.54C1175.09 1958.11 1244.22 2023.97 1345.89 2073.24C1439.99 2118.98 1515.79 2145.12 1566.1 2164.72C1704.89 2218.43 1781.08 2200.79 1925.1 2168.25C2055.37 2138.34 2183.58 2100.05 2308.92 2053.64C2446.4 2005.29 2589.9 1957.19 2760.7 1993.66C2776.21 1995.81 2791.96 1995.46 2807.36 1992.61C3143.75 1959.42 3227.78 1999.14 3372.71 2020.45C3584.94 2051.55 3826.97 1997.97 4022.61 2000.84C4167.8 2002.93 4294.83 2012.47 4404.48 2046.19C4529.54 2085.4 4643.89 2197 4742.56 2277.11C4793.79 2318.8 4833 2352.25 4866.19 2347.15C5070.58 2315.92 5076.86 2116.89 5232.11 1838.53C5285.96 1742.09 5341.5 1631.14 5429.84 1528.68C5518.19 1426.23 5790.14 1014.31 6283.48 724.196C6308.05 709.952 6335.76 694.662 6365.16 678.849C6582.49 564.37 6944.23 420.096 7449.86 408.988" stroke="#4A3AFF" stroke-width="7" stroke-miterlimit="10"/>
<path d="M148.807 1571.68C286.289 1620.42 421.549 1676.23 555.241 1728.5C749.31 1803.12 886.792 1854.35 1044.53 1947.52C1162.15 2016.53 1232.98 2080.43 1329.43 2129.44C1419.47 2175.31 1492.65 2203.93 1543.1 2225.23C1678.23 2282.34 1757.29 2274.1 1898.43 2246.53C2037.09 2219.48 2129.1 2184.98 2272.72 2130.22C2402.1 2080.82 2539.84 2071.28 2719.01 2040.05C2735.48 2037.17 2751.29 2037.43 2766.06 2034.82C3106.63 1973.66 3208.96 1990.65 3346.57 2005.81C3562.59 2029.46 3804.76 1977.45 4004.71 1981.24C4150.94 1984.12 4280.32 1996.14 4391.54 2033.51C4518.43 2076.64 4633.57 2198.44 4730.67 2283.51C4782.03 2328.47 4822.15 2363.49 4854.69 2358.39C5058.82 2327.16 5062.35 2114.41 5211.73 1822.59C5263.08 1722.36 5317.45 1608.27 5405.27 1501.63C5488 1401.27 5764.66 979.552 6264.8 683.162C6289.63 668.656 6317.07 653.105 6347.26 636.9C6566.16 520.592 6932.21 372.789 7443.59 359.459" stroke="#4A3AFF" stroke-width="7" stroke-miterlimit="10"/>
<path d="M156.516 1622.65C289.293 1671.39 422.07 1728.24 555.501 1782.21C738.462 1856.31 878.165 1912.89 1035.12 2006.72C1148.69 2074.16 1222.39 2136.1 1313.74 2184.98C1399.6 2230.72 1469.65 2261.69 1520.75 2285.21C1652.35 2345.72 1734.29 2346.89 1872.56 2324.42C2005.33 2302.72 2089.37 2267.57 2237.17 2206.8C2358.84 2156.36 2494.1 2132.7 2677.85 2086.57C2694.18 2082.52 2710.39 2080.82 2725.42 2077.03C3070.43 1988.04 3191.18 2006.07 3321.08 1991.17C3542.37 1966.87 3765.02 1957.09 3987.58 1961.9C4134.87 1965.43 4266.47 1979.93 4379.64 2021.49C4508.37 2069.06 4624.16 2200.66 4719.43 2290.57C4770.79 2338.79 4810.91 2375.25 4843.84 2370.29C5047.84 2338.92 5048.5 2112.58 5191.73 1808.35C5240.61 1704.45 5294.06 1587.23 5381.09 1476.28C5457.54 1378.92 5739.3 946.358 6246.37 643.826C6271.33 629.059 6298.64 613.246 6329.61 596.78C6550.21 478.381 6920.32 327.049 7437.7 311.759" stroke="#4A3AFF" stroke-width="7" stroke-miterlimit="10"/>
<path d="M162.92 1659.37C290.993 1708.11 421.287 1765.35 554.979 1822.07C726.962 1895.38 868.626 1958.5 1025.45 2051.94C1135.62 2117.28 1211.55 2177.92 1297.8 2226.4C1379.48 2272.27 1446.52 2305.6 1498.01 2330.95C1626.48 2394.72 1710.9 2405.31 1846.29 2387.93C1973.32 2371.59 2049.77 2336.44 2201.36 2267.96C2315.58 2216.34 2448.88 2179.1 2636.55 2117.67C2652.89 2112.32 2669.09 2108.79 2684.51 2103.69C3034.23 1987.12 3172.89 1976.14 3295.34 1961.25C3519.19 1933.7 3744.72 1922.22 3970.2 1926.88C4118.4 1931.19 4252.36 1948.18 4366.58 1993.66C4497.26 2045.93 4613.57 2186.94 4707.93 2281.16C4759.16 2332.65 4799.41 2370.81 4832.73 2365.71C5036.47 2334.22 5034.64 2094.28 5171.34 1776.85C5217.74 1669.04 5270.66 1548.94 5356.52 1433.68C5426.96 1339.19 5713.69 895.914 6227.68 587.109C6252.77 572.081 6280.87 556.007 6311.71 539.279C6533.88 418.92 6908.29 264.06 7431.56 246.548" stroke="#4A3AFF" stroke-width="7" stroke-miterlimit="10"/>
<path d="M169.586 1679.1C292.954 1727.85 421.026 1785.08 553.673 1844.81C714.679 1917.34 858.956 1986.21 1013.95 2080.04C1120.72 2144.2 1198.74 2202.62 1279.9 2250.71C1357.52 2296.71 1421.56 2332.13 1473.57 2360.09C1598.9 2427.13 1685.81 2447 1818.19 2434.84C1939.47 2423.73 2008.87 2389.5 2163.73 2313.05C2270.63 2260.77 2402.36 2209.54 2593.29 2132.7C2609.76 2126.17 2626.1 2120.81 2641.65 2114.41C2996.59 1970 3152.11 1929.62 3267.77 1915.11C3492.94 1887.02 3737.45 1868.98 3950.86 1875.91C4100.11 1880.75 4236.28 1900.35 4352.2 1949.75C4484.59 2006.2 4601.42 2157.14 4694.6 2256.98C4745.83 2311.87 4786.99 2351.34 4819.8 2346.24C5023.41 2314.88 5018.96 2061.09 5149.26 1730.72C5193.17 1619.12 5245.83 1496.27 5330.13 1376.44C5394.69 1284.96 5686.25 830.965 6207.16 515.887C6232.52 500.728 6260.74 484.262 6291.98 467.142C6515.84 344.953 6894.31 186.565 7423.59 166.57" stroke="#4A3AFF" stroke-width="7" stroke-miterlimit="10"/>
<path d="M176.904 1697.92C295.698 1746.53 421.68 1803.77 553.673 1866.76C707.982 1939.06 858.391 2019.42 1004.28 2107.48C1107.65 2170.21 1187.24 2226.79 1263.95 2274.36C1337.27 2320.76 1398.43 2358.13 1450.97 2388.32C1573.29 2458.76 1662.55 2487.77 1791.93 2480.97C1907.58 2474.96 1970.31 2442.42 2127.92 2357.35C2228.03 2303.38 2358.32 2239.08 2552 2146.95C2568.46 2139.11 2584.93 2131.92 2600.74 2124.34C2960.78 1952.1 3131.98 1875.39 3242.02 1868.2C3471.9 1853.56 3715.5 1815.93 3933.48 1824.16C4083.77 1829.52 4222.17 1851.99 4339.66 1905.18C4473.87 1966.08 4591.1 2127.34 4683.1 2231.89C4734.07 2290.05 4775.89 2331.08 4808.69 2326.11C5012.04 2294.49 5004.72 2026.98 5128.87 1683.67C5172.71 1555.07 5232.04 1432.29 5305.56 1318.02C5364.37 1229.29 5660.63 764.708 6188.34 443.358C6213.83 427.937 6242.32 411.21 6273.94 393.829C6499.38 269.679 6882.16 107.763 7417.32 85.9385" stroke="#4A3AFF" stroke-width="7" stroke-miterlimit="10"/>
<path d="M183.961 1715.95C463.923 1835.32 734.737 1975.09 994.216 2134.14C1411.63 2390.15 1525.72 2528.41 1765.27 2526.19C1939.73 2524.49 1980.9 2450.26 2510.18 2160.28C2908.25 1942.17 3107.28 1833.57 3215.88 1820.5C3606.11 1774.89 4032.67 1718.44 4326.72 1859.71C4538.69 1961.51 4705.71 2318.14 4797.19 2304.03C5068.36 2261.95 4961.33 1774.76 5280.73 1258.56C5333.92 1172.57 5634.76 697.537 6169.39 369.914C6376.92 242.759 6793.55 31.3128 7410.91 4" stroke="#4A3AFF" stroke-width="7" stroke-miterlimit="10"/>
</svg>
